<svg width="64" height="64" viewBox="0 0 24 32" fill="none" xmlns="http://www.w3.org/2000/svg">
  <path
    d="M5.17382 11.6683C5.23956 11.9358 5.61827 11.9358 5.68402 11.6683L6.27576 9.26325C6.3941 8.77829 6.76886 8.40273 7.25146 8.28412L9.64995 7.6911C9.91689 7.62522 9.91689 7.24306 9.64995 7.17717L7.25146 6.58415C7.01489 6.52628 6.79874 6.40434 6.62667 6.23164C6.45459 6.05895 6.33318 5.84219 6.27576 5.60502L5.68402 3.20001C5.61827 2.9325 5.23956 2.9325 5.17382 3.20001L4.58208 5.60502C4.52466 5.84219 4.40325 6.05895 4.23117 6.23164C4.05909 6.40434 3.84295 6.52628 3.60638 6.58415L1.19999 7.17717C0.93305 7.24306 0.93305 7.62522 1.19999 7.6911L3.60638 8.28412C3.84295 8.34199 4.05909 8.46393 4.23117 8.63662C4.40325 8.80931 4.52466 9.02608 4.58208 9.26325L5.17382 11.6683Z"
    fill="#014FDC"
  />
  <path
    d="M13.3828 28.8004C13.4485 29.0665 13.8272 29.0665 13.8929 28.8004L15.1211 23.8138C15.2218 23.3989 15.4341 23.0197 15.7351 22.7176C16.0362 22.4155 16.4142 22.202 16.828 22.1006L21.7998 20.8685C22.0667 20.8026 22.0667 20.4231 21.7998 20.3572L16.8292 19.125C16.4149 19.024 16.0363 18.8108 15.7348 18.5086C15.4333 18.2065 15.2207 17.8271 15.1198 17.4119L13.8929 12.4253C13.8272 12.1578 13.4485 12.1578 13.3828 12.4253L12.1559 17.4119C12.0552 17.8269 11.8426 18.2062 11.5414 18.5083C11.2401 18.8105 10.8618 19.0238 10.4478 19.125L5.4601 20.3572C5.19316 20.4231 5.19316 20.8026 5.4601 20.8685L10.4478 22.1006C10.8618 22.2018 11.2401 22.4152 11.5414 22.7173C11.8426 23.0194 12.0552 23.3987 12.1559 23.8138L13.3828 28.8004Z"
    fill="#014FDC"
  />
</svg>
