<svg preserveAspectRatio="none" width="100%" height="100%" overflow="visible" style="display: block;" viewBox="0 0 21.4807 20.5273" fill="none" xmlns="http://www.w3.org/2000/svg">
<path id="Vector" d="M9.84364 0.557438C10.2104 -0.185813 11.2702 -0.185813 11.637 0.557438L14.1813 5.71265C14.3269 6.00779 14.6085 6.21236 14.9342 6.25969L20.6233 7.08637C21.4436 7.20556 21.7711 8.21353 21.1776 8.79205L17.0609 12.8048C16.8252 13.0345 16.7176 13.3655 16.7733 13.6899L17.7451 19.3561C17.8852 20.173 17.0278 20.7959 16.2941 20.4102L11.2056 17.735C10.9143 17.5819 10.5663 17.5819 10.275 17.735L5.1865 20.4102C4.45287 20.7959 3.59544 20.173 3.73555 19.3561L4.70736 13.6899C4.763 13.3655 4.65545 13.0345 4.41977 12.8048L0.303076 8.79205C-0.290434 8.21353 0.0370759 7.20556 0.857296 7.08637L6.54642 6.25969C6.87212 6.21236 7.15369 6.00779 7.29935 5.71265L9.84364 0.557438Z" fill="var(--fill-0, #34C759)"/>
</svg>
