<svg preserveAspectRatio="none" width="100%" height="100%" overflow="visible" style="display: block;" viewBox="0 0 150 32" fill="none" xmlns="http://www.w3.org/2000/svg">
<g id="logo.svg">
<path id="Vector" d="M141.848 7.99999V10.052H139.13V7.99999H141.848ZM139.31 11.924H141.65V20.87H139.31V11.924Z" fill="var(--fill-0, #0F0017)"/>
<path id="Vector_2" d="M129.434 21.068C128.546 21.068 127.736 20.876 127.004 20.492C126.284 20.096 125.708 19.55 125.276 18.854C124.856 18.146 124.646 17.33 124.646 16.406C124.646 15.458 124.862 14.636 125.294 13.94C125.726 13.244 126.308 12.704 127.04 12.32C127.784 11.924 128.624 11.726 129.56 11.726C130.592 11.726 131.42 11.936 132.044 12.356C132.68 12.764 133.142 13.322 133.43 14.03C133.718 14.738 133.862 15.53 133.862 16.406C133.862 16.934 133.778 17.474 133.61 18.026C133.442 18.566 133.184 19.07 132.836 19.538C132.488 19.994 132.032 20.366 131.468 20.654C130.904 20.93 130.226 21.068 129.434 21.068ZM130.19 19.268C130.898 19.268 131.51 19.148 132.026 18.908C132.542 18.668 132.938 18.332 133.214 17.9C133.49 17.468 133.628 16.97 133.628 16.406C133.628 15.794 133.484 15.278 133.196 14.858C132.92 14.426 132.524 14.102 132.008 13.886C131.504 13.658 130.898 13.544 130.19 13.544C129.194 13.544 128.42 13.808 127.868 14.336C127.316 14.852 127.04 15.542 127.04 16.406C127.04 16.982 127.172 17.486 127.436 17.918C127.7 18.338 128.066 18.668 128.534 18.908C129.014 19.148 129.566 19.268 130.19 19.268ZM133.628 11.924H135.968V20.87H133.79C133.79 20.87 133.772 20.756 133.736 20.528C133.712 20.288 133.688 19.988 133.664 19.628C133.64 19.268 133.628 18.914 133.628 18.566V11.924Z" fill="var(--fill-0, #0F0017)"/>
<path id="Vector_3" d="M122.005 18.818V20.87H119.287V18.818H122.005Z" fill="var(--fill-0, #0F0017)"/>
<path id="Vector_4" d="M108.033 12.4279H114.649V14.159H108.033V12.4279ZM110.227 10.0969H112.455V20.9463H110.227V10.0969Z" fill="var(--fill-0, #313131)"/>
<path id="Vector_5" d="M105.576 20.9463H103.348V12.4279H105.576V20.9463ZM103.468 16.85L103.485 17.4327C103.463 17.5927 103.405 17.8269 103.314 18.1354C103.223 18.4325 103.08 18.7525 102.886 19.0953C102.703 19.438 102.463 19.7694 102.166 20.0894C101.869 20.3979 101.503 20.655 101.069 20.8606C100.635 21.0549 100.12 21.152 99.5262 21.152C99.0577 21.152 98.5949 21.0949 98.1379 20.9806C97.6922 20.8663 97.2866 20.6778 96.921 20.415C96.5553 20.1408 96.2639 19.7751 96.0468 19.3181C95.8297 18.861 95.7212 18.284 95.7212 17.587V12.4279H97.9493V17.2099C97.9493 17.7584 98.035 18.1926 98.2064 18.5125C98.3893 18.821 98.6521 19.0381 98.9949 19.1638C99.3377 19.2895 99.7433 19.3523 100.212 19.3523C100.829 19.3523 101.36 19.2209 101.806 18.9581C102.251 18.6839 102.611 18.3525 102.886 17.964C103.171 17.5755 103.365 17.2042 103.468 16.85Z" fill="var(--fill-0, #313131)"/>
<path id="Vector_6" d="M87.6466 21.152C86.5726 21.152 85.6242 20.9806 84.8015 20.6378C83.9902 20.295 83.356 19.798 82.899 19.1467C82.4419 18.4839 82.2134 17.6726 82.2134 16.7128C82.2134 15.753 82.4419 14.9417 82.899 14.279C83.356 13.6048 83.9902 13.0964 84.8015 12.7536C85.6242 12.4108 86.5726 12.2394 87.6466 12.2394C88.7207 12.2394 89.6577 12.4108 90.4575 12.7536C91.2688 13.0964 91.903 13.6048 92.36 14.279C92.8171 14.9417 93.0456 15.753 93.0456 16.7128C93.0456 17.6726 92.8171 18.4839 92.36 19.1467C91.903 19.798 91.2688 20.295 90.4575 20.6378C89.6577 20.9806 88.7207 21.152 87.6466 21.152ZM87.6466 19.438C88.2408 19.438 88.7721 19.3352 89.2406 19.1295C89.7205 18.9124 90.0976 18.6039 90.3718 18.204C90.6461 17.7926 90.7832 17.2956 90.7832 16.7128C90.7832 16.1301 90.6461 15.633 90.3718 15.2217C90.0976 14.7989 89.7262 14.479 89.2578 14.2619C88.7893 14.0448 88.2522 13.9362 87.6466 13.9362C87.0525 13.9362 86.5154 14.0448 86.0355 14.2619C85.5556 14.479 85.1728 14.7932 84.8872 15.2045C84.6129 15.6159 84.4758 16.1187 84.4758 16.7128C84.4758 17.2956 84.6129 17.7926 84.8872 18.204C85.1614 18.6039 85.5385 18.9124 86.0184 19.1295C86.4983 19.3352 87.041 19.438 87.6466 19.438Z" fill="var(--fill-0, #313131)"/>
<path id="Vector_7" d="M73.6816 12.4279H80.2975V14.159H73.6816V12.4279ZM75.8755 10.0969H78.1037V20.9463H75.8755V10.0969Z" fill="var(--fill-0, #313131)"/>
<path id="Vector_8" d="M65.0044 12.5822H71.8602V14.279H65.0044V12.5822ZM70.2148 9H71.9802V10.7997H70.7462C70.4148 10.7882 70.1291 10.8225 69.8892 10.9025C69.6492 10.9825 69.4664 11.131 69.3407 11.3481C69.215 11.5538 69.1522 11.8509 69.1522 12.2394V20.9463H66.924V11.9652C66.924 11.2796 67.0497 10.7197 67.3011 10.2855C67.5525 9.83984 67.9238 9.51419 68.4152 9.30851C68.9065 9.10284 69.5064 9 70.2148 9Z" fill="var(--fill-0, #313131)"/>
<path id="Vector_9" d="M56.3375 21.1349C55.4919 21.1349 54.7206 20.952 54.0236 20.5864C53.338 20.2093 52.7896 19.6894 52.3782 19.0267C51.9783 18.3525 51.7783 17.5755 51.7783 16.6957C51.7783 15.793 51.984 15.0103 52.3953 14.3476C52.8067 13.6848 53.3609 13.1706 54.0579 12.805C54.7663 12.4279 55.5662 12.2394 56.4574 12.2394C57.4401 12.2394 58.2285 12.4394 58.8227 12.8393C59.4283 13.2278 59.8682 13.7591 60.1425 14.4333C60.4167 15.1074 60.5538 15.8616 60.5538 16.6957C60.5538 17.1985 60.4738 17.7126 60.3138 18.2383C60.1539 18.7524 59.9082 19.2324 59.5768 19.678C59.2455 20.1122 58.8113 20.4664 58.2742 20.7406C57.7372 21.0034 57.0916 21.1349 56.3375 21.1349ZM57.0573 19.4209C57.7315 19.4209 58.3142 19.3066 58.8056 19.0781C59.2969 18.8496 59.674 18.5296 59.9368 18.1183C60.1996 17.7069 60.331 17.2327 60.331 16.6957C60.331 16.1129 60.1939 15.6216 59.9196 15.2217C59.6568 14.8103 59.2798 14.5018 58.7884 14.2961C58.3085 14.079 57.7315 13.9705 57.0573 13.9705C56.1089 13.9705 55.3719 14.2219 54.8463 14.7246C54.3207 15.216 54.0579 15.873 54.0579 16.6957C54.0579 17.2442 54.1836 17.7241 54.435 18.1354C54.6863 18.5353 55.0348 18.8496 55.4805 19.0781C55.9375 19.3066 56.4631 19.4209 57.0573 19.4209ZM60.331 12.4279H62.5591V20.9463H60.4852C60.4852 20.9463 60.4681 20.8378 60.4338 20.6207C60.411 20.3921 60.3881 20.1065 60.3653 19.7637C60.3424 19.4209 60.331 19.0838 60.331 18.7524V12.4279Z" fill="var(--fill-0, #313131)"/>
<path id="Vector_10" d="M44.2822 12.4279H46.5104V20.9463H44.2822V12.4279ZM49.784 14.2619C49.1442 14.2619 48.59 14.3876 48.1215 14.6389C47.653 14.8789 47.2759 15.176 46.9903 15.5302C46.7046 15.8844 46.5047 16.2272 46.3904 16.5586L46.3733 15.6159C46.3847 15.4788 46.4304 15.2788 46.5104 15.016C46.5904 14.7418 46.7103 14.4504 46.8703 14.1419C47.0303 13.8219 47.2417 13.5191 47.5045 13.2335C47.7673 12.9364 48.0872 12.6964 48.4643 12.5136C48.8414 12.3308 49.2813 12.2394 49.784 12.2394V14.2619Z" fill="var(--fill-0, #313131)"/>
<path id="Vector_11" d="M34.6304 21.1348C33.7734 21.1348 32.9965 20.952 32.2994 20.5864C31.6139 20.2093 31.0711 19.6894 30.6712 19.0267C30.2713 18.3525 30.0713 17.5755 30.0713 16.6957C30.0713 15.793 30.2655 15.0103 30.654 14.3476C31.054 13.6848 31.5967 13.1706 32.2823 12.805C32.9679 12.4279 33.7506 12.2394 34.6304 12.2394C35.396 12.2394 36.0473 12.3537 36.5843 12.5822C37.1214 12.8107 37.5556 13.1306 37.887 13.542C38.2183 13.9419 38.4583 14.4104 38.6068 14.9474C38.7668 15.4845 38.8468 16.0672 38.8468 16.6957C38.8468 17.1985 38.7668 17.7126 38.6068 18.2383C38.4468 18.7524 38.2012 19.2324 37.8698 19.678C37.5384 20.1122 37.1042 20.4664 36.5672 20.7406C36.0302 21.0034 35.3846 21.1348 34.6304 21.1348ZM35.3503 19.4209C36.0244 19.4209 36.6072 19.3066 37.0985 19.0781C37.5899 18.8496 37.9669 18.5296 38.2297 18.1183C38.4926 17.7069 38.624 17.2327 38.624 16.6957C38.624 16.1129 38.4868 15.6216 38.2126 15.2217C37.9498 14.8103 37.5727 14.4961 37.0814 14.279C36.6015 14.0619 36.0244 13.9533 35.3503 13.9533C34.4019 13.9533 33.6649 14.2047 33.1393 14.7075C32.6137 15.2103 32.3509 15.873 32.3509 16.6957C32.3509 17.2442 32.4765 17.7241 32.7279 18.1354C32.9793 18.5353 33.3278 18.8496 33.7734 19.0781C34.2305 19.3066 34.7561 19.4209 35.3503 19.4209ZM38.624 9H40.8521V20.9463H38.7782C38.7439 20.6835 38.7097 20.3464 38.6754 19.9351C38.6411 19.5123 38.624 19.1181 38.624 18.7524V9Z" fill="var(--fill-0, #313131)"/>
<path id="Vector_12" d="M5.17402 11.6689C5.23977 11.9364 5.61848 11.9364 5.68423 11.6689L6.27596 9.26386C6.39431 8.77891 6.76907 8.40334 7.25167 8.28473L9.65016 7.69172C9.9171 7.62583 9.9171 7.24367 9.65016 7.17778L7.25167 6.58476C7.01509 6.52689 6.79895 6.40495 6.62687 6.23226C6.45479 6.05957 6.33339 5.8428 6.27596 5.60563L5.68423 3.20063C5.61848 2.93312 5.23977 2.93312 5.17402 3.20063L4.58229 5.60563C4.52486 5.8428 4.40347 6.05957 4.23139 6.23226C4.05931 6.40495 3.84316 6.52689 3.60659 6.58476L1.2002 7.17778C0.933266 7.24367 0.933266 7.62583 1.2002 7.69172L3.60659 8.28473C3.84316 8.34261 4.05931 8.46455 4.23139 8.63724C4.40347 8.80992 4.52486 9.0267 4.58229 9.26386L5.17402 11.6689ZM13.3827 28.8004C13.4485 29.0665 13.8272 29.0665 13.8929 28.8004L15.1211 23.8138C15.2217 23.3989 15.434 23.0197 15.7351 22.7176C16.0361 22.4155 16.4141 22.202 16.8279 22.1006L21.7998 20.8685C22.0667 20.8026 22.0667 20.4231 21.7998 20.3572L16.8292 19.125C16.4149 19.024 16.0363 18.8108 15.7348 18.5086C15.4333 18.2065 15.2206 17.8271 15.1198 17.4119L13.8929 12.4253C13.8272 12.1578 13.4485 12.1578 13.3827 12.4253L12.1559 17.4119C12.0552 17.8269 11.8426 18.2062 11.5413 18.5083C11.2401 18.8105 10.8618 19.0238 10.4477 19.125L5.46006 20.3572C5.19312 20.4231 5.19312 20.8026 5.46006 20.8685L10.4477 22.1006C10.8618 22.2018 11.2401 22.4152 11.5413 22.7173C11.8426 23.0194 12.0552 23.3987 12.1559 23.8138L13.3827 28.8004Z" fill="var(--fill-0, #014FDC)"/>
</g>
</svg>
