<svg preserveAspectRatio="none" width="100%" height="100%" overflow="visible" style="display: block;" viewBox="0 0 210.214 332" fill="none" xmlns="http://www.w3.org/2000/svg">
<g id="Group">
<path id="Vector" d="M76.8216 154.374H76.8214C34.3941 154.374 0 119.98 0 77.5526V76.8214C0 34.3941 34.3941 0 76.8214 0H76.8216C119.249 0 153.643 34.3941 153.643 76.8214V77.5526C153.643 119.98 119.249 154.374 76.8216 154.374Z" fill="url(#paint0_linear_19_147)" fill-opacity="0.2"/>
<path id="Vector_2" d="M153.642 274.464C153.642 306.24 127.883 332 96.1067 332C64.3307 332 38.5712 306.24 38.5712 274.464V273.917C38.5712 242.141 64.3307 216.381 96.1067 216.381C127.883 216.381 153.642 242.141 153.642 273.917V274.464Z" fill="url(#paint1_linear_19_147)" fill-opacity="0.2"/>
<path id="Vector_3" d="M133.393 248.031H133.393C90.9653 248.031 56.5712 213.637 56.5712 171.21V170.478C56.5712 128.051 90.9653 93.657 133.393 93.657H133.393C175.82 93.657 210.214 128.051 210.214 170.478V171.21C210.214 213.637 175.82 248.031 133.393 248.031Z" fill="url(#paint2_linear_19_147)" fill-opacity="0.2"/>
</g>
<defs>
<linearGradient id="paint0_linear_19_147" x1="76.8214" y1="174.59" x2="-0.611699" y2="0.271989" gradientUnits="userSpaceOnUse">
<stop stop-color="#70CCFA" stop-opacity="0.4"/>
<stop offset="1" stop-color="#0147FF"/>
</linearGradient>
<linearGradient id="paint1_linear_19_147" x1="96.1069" y1="347.141" x2="38.113" y2="216.585" gradientUnits="userSpaceOnUse">
<stop stop-color="#70CCFA" stop-opacity="0.4"/>
<stop offset="1" stop-color="#0147FF"/>
</linearGradient>
<linearGradient id="paint2_linear_19_147" x1="133.393" y1="268.247" x2="55.9595" y2="93.929" gradientUnits="userSpaceOnUse">
<stop stop-color="#70CCFA" stop-opacity="0.4"/>
<stop offset="1" stop-color="#0147FF"/>
</linearGradient>
</defs>
</svg>
