<svg preserveAspectRatio="none" width="100%" height="100%" overflow="visible" style="display: block;" viewBox="0 0 49 44" fill="none" xmlns="http://www.w3.org/2000/svg">
<g id="Shield-2.svg" clip-path="url(#clip0_19_99)">
<path id="Vector" d="M25.7253 28.5705C25.6356 28.6229 25.5341 28.6545 25.4292 28.6597L22.0469 28.8249C21.0869 28.8714 20.2611 28.7766 19.5214 28.5363C17.9029 28.0112 16.5446 26.9168 15.6978 25.4532L12.909 20.6369C12.587 20.0811 12.6592 19.3713 13.0866 18.8701L16.916 14.3936C17.142 14.1254 17.4583 13.9387 17.804 13.8683L23.5356 12.683C24.1767 12.5494 24.8241 12.8341 25.1449 13.3896L27.9359 18.2094C28.7822 19.6705 29.0619 21.4025 28.7243 23.0866C28.5693 23.8591 28.2463 24.6336 27.7379 25.4545L25.9461 28.3529C25.8908 28.4433 25.8145 28.5174 25.7253 28.5705Z" fill="url(#paint0_linear_19_99)"/>
<g id="Group" filter="url(#filter0_f_19_99)">
<path id="Vector_2" d="M24.2295 25.7009C24.1687 25.7364 24.1009 25.7597 24.0318 25.7668L21.8046 25.9957C21.1725 26.0604 20.6337 26.0333 20.1568 25.9137C19.1132 25.6525 18.2616 25.0321 17.7594 24.1658L16.1053 21.3153C15.9143 20.9864 15.9878 20.548 16.287 20.2244L18.9665 17.333C19.1248 17.1598 19.3393 17.0334 19.5689 16.9771L23.3764 16.0337C23.8023 15.9276 24.217 16.0779 24.4072 16.4067L26.0626 19.2593C26.5645 20.124 26.6845 21.1764 26.4008 22.2226C26.2706 22.7025 26.0299 23.1899 25.6659 23.7128L24.3826 25.559C24.3429 25.6166 24.2901 25.665 24.2295 25.7009Z" fill="var(--fill-0, #1EA51F)" fill-opacity="0.5"/>
</g>
<g id="Group_2">
<path id="Vector_3" d="M27.5856 36.9883C27.4493 36.9669 27.3177 36.914 27.2044 36.8304L23.5526 34.1385C22.5164 33.374 21.736 32.5761 21.1648 31.6995C19.9145 29.7823 19.4032 27.4929 19.7274 25.2521L20.7916 17.8763C20.9143 17.025 21.5734 16.347 22.4301 16.1872L30.0944 14.7692C30.5501 14.6813 31.0325 14.7548 31.4498 14.9741L38.3831 18.5933C39.1594 18.9971 39.5981 19.8417 39.4745 20.6918L38.4094 28.073C38.0869 30.3107 36.9524 32.3509 35.2156 33.8183C34.4188 34.4914 33.4457 35.0242 32.2418 35.4484L27.9942 36.9488C27.8623 36.9961 27.722 37.0086 27.5856 36.9883Z" fill="var(--fill-0, #72DC60)" fill-opacity="0.35"/>
<g id="Mask group">
<mask id="mask0_19_99" style="mask-type:luminance" maskUnits="userSpaceOnUse" x="16" y="12" width="26" height="29">
<g id="Group_3">
<path id="Vector_4" d="M41.3893 12.1527H16.9165V40.1287H41.3893V12.1527Z" fill="var(--fill-0, white)"/>
<path id="Vector_5" d="M27.5856 36.9883C27.4493 36.9669 27.3177 36.914 27.2044 36.8304L23.5526 34.1385C22.5164 33.374 21.736 32.5761 21.1648 31.6995C19.9145 29.7823 19.4032 27.4929 19.7274 25.2521L20.7916 17.8763C20.9143 17.025 21.5734 16.347 22.4301 16.1872L30.0944 14.7692C30.5501 14.6813 31.0325 14.7548 31.4498 14.9741L38.3831 18.5933C39.1594 18.9971 39.5981 19.8417 39.4745 20.6918L38.4094 28.073C38.0869 30.3107 36.9524 32.3509 35.2156 33.8183C34.4188 34.4914 33.4457 35.0242 32.2418 35.4484L27.9942 36.9488C27.8623 36.9961 27.722 37.0086 27.5856 36.9883Z" fill="var(--fill-0, black)"/>
</g>
</mask>
<g mask="url(#mask0_19_99)">
<path id="Vector_6" d="M27.4365 37.9771C27.9821 38.0628 28.4912 37.6894 28.5735 37.1433C28.6558 36.5972 28.2803 36.0851 27.7346 35.9995L27.5856 36.9883L27.4365 37.9771ZM22.4301 16.1872L22.2433 15.2029L22.2418 15.2032L22.4301 16.1872ZM30.0944 14.7692L30.2813 15.7536L30.2888 15.7521L30.0944 14.7692ZM31.4498 14.9741L30.9896 15.8599L30.9921 15.8612L31.4498 14.9741ZM38.3831 18.5933L37.9254 19.4804L37.9267 19.481L38.3831 18.5933ZM39.4745 20.6918L38.4858 20.5419L38.4857 20.543L39.4745 20.6918ZM27.9942 36.9488L27.6572 36.0046L27.6528 36.0062L27.9942 36.9488ZM27.7267 35.9983C27.1805 35.917 26.6745 36.2944 26.5965 36.8412C26.5185 37.388 26.8982 37.8971 27.4444 37.9783L27.5856 36.9883L27.7267 35.9983ZM27.5856 36.9883L27.7346 35.9995C27.7498 36.0019 27.7708 36.0087 27.7936 36.0255L27.2044 36.8304L26.6152 37.6354C26.8647 37.8193 27.1487 37.932 27.4365 37.9771L27.5856 36.9883ZM27.2044 36.8304L27.7936 36.0255L24.1417 33.3335L23.5526 34.1385L22.9631 34.9432L26.6152 37.6354L27.2044 36.8304ZM23.5526 34.1385L24.1417 33.3335C23.1813 32.6249 22.4928 31.9113 22.0005 31.1558L21.1648 31.6995L20.3292 32.2433C20.9792 33.2408 21.8512 34.1229 22.9631 34.9432L23.5526 34.1385ZM21.1648 31.6995L22.0005 31.1558C20.8825 29.4415 20.4273 27.3979 20.7162 25.4012L19.7274 25.2521L18.7386 25.1029C18.3791 27.5879 18.9465 30.1232 20.3292 32.2433L21.1648 31.6995ZM19.7274 25.2521L20.7162 25.4012L21.7804 18.025L20.7916 17.8763L19.8028 17.7275L18.7386 25.1029L19.7274 25.2521ZM20.7916 17.8763L21.7804 18.025C21.8407 17.6062 22.1696 17.255 22.6185 17.1712L22.4301 16.1872L22.2418 15.2032C20.9772 15.4391 19.9878 16.4438 19.8028 17.7275L20.7916 17.8763ZM22.4301 16.1872L22.617 17.1715L30.2813 15.7536L30.0944 14.7692L29.9076 13.7849L22.2433 15.2029L22.4301 16.1872ZM30.0944 14.7692L30.2888 15.7521C30.5179 15.7079 30.7698 15.7444 30.9896 15.8599L31.4498 14.9741L31.9099 14.0883C31.2951 13.7652 30.5823 13.6547 29.9001 13.7863L30.0944 14.7692ZM31.4498 14.9741L30.9921 15.8612L37.9254 19.4804L38.3831 18.5933L38.8407 17.7062L31.9074 14.087L31.4498 14.9741ZM38.3831 18.5933L37.9267 19.481C38.3311 19.6914 38.5466 20.1238 38.4858 20.5419L39.4745 20.6918L40.4632 20.8416C40.6496 19.5597 39.9877 18.3028 38.8395 17.7056L38.3831 18.5933ZM39.4745 20.6918L38.4857 20.543L37.4206 27.9242L38.4094 28.073L39.3983 28.2218L40.4633 20.8405L39.4745 20.6918ZM38.4094 28.073L37.4206 27.9242C37.1332 29.9181 36.1219 31.7395 34.5689 33.0517L35.2156 33.8183L35.8622 34.5851C37.7827 32.9623 39.0406 30.7034 39.3983 28.2218L38.4094 28.073ZM35.2156 33.8183L34.5689 33.0517C33.8821 33.6318 33.021 34.1109 31.9055 34.5039L32.2418 35.4484L32.578 36.3928C33.8704 35.9375 34.9554 35.3511 35.8622 34.5851L35.2156 33.8183ZM32.2418 35.4484L31.9055 34.5039L27.6572 36.0046L27.9942 36.9488L28.3313 37.8929L32.578 36.3928L32.2418 35.4484ZM27.9942 36.9488L27.6528 36.0062C27.6795 35.9966 27.7053 35.9951 27.7267 35.9983L27.5856 36.9883L27.4444 37.9783C27.7388 38.0221 28.0451 37.9955 28.3357 37.8914L27.9942 36.9488Z" fill="url(#paint1_linear_19_99)"/>
</g>
</g>
</g>
<g id="Group_4" filter="url(#filter2_d_19_99)">
<path id="Vector_7" d="M28.0273 28.326C27.8145 28.2937 27.6135 28.1831 27.4735 27.9985L25.6732 25.6219C25.3955 25.2531 25.47 24.7368 25.8405 24.4674C26.2112 24.197 26.7377 24.2762 27.0167 24.6442L28.3122 26.3534L32.5723 23.2501C32.944 22.9798 33.4706 23.0591 33.7485 23.4269C34.0273 23.7959 33.9527 24.3133 33.5823 24.5815L28.6497 28.1752C28.4638 28.3109 28.2401 28.3582 28.0273 28.326Z" fill="url(#paint2_linear_19_99)"/>
<path id="Vector_8" d="M32.6312 23.3309C32.9592 23.0926 33.4246 23.163 33.6693 23.4869C33.9144 23.8114 33.8481 24.2647 33.5235 24.5L28.5909 28.0942C28.4271 28.2137 28.2298 28.255 28.0416 28.2265C27.8531 28.1979 27.6759 28.1007 27.5527 27.9383L25.7522 25.5612C25.5088 25.2369 25.5751 24.7846 25.9 24.5484C26.2266 24.3103 26.6912 24.38 26.9372 24.7042L28.2329 26.414L28.2921 26.4925L28.371 26.4346L32.6312 23.3309Z" stroke="url(#paint3_linear_19_99)" stroke-opacity="0.5" stroke-width="0.2"/>
</g>
</g>
<defs>
<filter id="filter0_f_19_99" x="-4.57764e-05" y="4.76837e-05" width="42.5513" height="42.0298" filterUnits="userSpaceOnUse" color-interpolation-filters="sRGB">
<feFlood flood-opacity="0" result="BackgroundImageFix"/>
<feBlend mode="normal" in="SourceGraphic" in2="BackgroundImageFix" result="shape"/>
<feGaussianBlur stdDeviation="8" result="effect1_foregroundBlur_19_99"/>
</filter>
<filter id="filter2_d_19_99" x="10.5054" y="8.08957" width="38.412" height="35.2461" filterUnits="userSpaceOnUse" color-interpolation-filters="sRGB">
<feFlood flood-opacity="0" result="BackgroundImageFix"/>
<feColorMatrix in="SourceAlpha" type="matrix" values="0 0 0 0 0 0 0 0 0 0 0 0 0 0 0 0 0 0 127 0" result="hardAlpha"/>
<feOffset dx="5" dy="5"/>
<feGaussianBlur stdDeviation="5"/>
<feColorMatrix type="matrix" values="0 0 0 0 0.454902 0 0 0 0 0.870588 0 0 0 0 0.376471 0 0 0 0.5 0"/>
<feBlend mode="normal" in2="BackgroundImageFix" result="effect1_dropShadow_19_99"/>
<feBlend mode="normal" in="SourceGraphic" in2="effect1_dropShadow_19_99" result="shape"/>
</filter>
<linearGradient id="paint0_linear_19_99" x1="23.5037" y1="10.4414" x2="19.0619" y2="26.8167" gradientUnits="userSpaceOnUse">
<stop stop-color="#9BF763"/>
<stop offset="1" stop-color="#26AB5B"/>
</linearGradient>
<linearGradient id="paint1_linear_19_99" x1="24.0706" y1="16.3512" x2="36.2515" y2="33.7471" gradientUnits="userSpaceOnUse">
<stop stop-color="white" stop-opacity="0.25"/>
<stop offset="1" stop-color="white" stop-opacity="0"/>
</linearGradient>
<linearGradient id="paint2_linear_19_99" x1="33.2993" y1="24.2058" x2="24.2647" y2="23.2529" gradientUnits="userSpaceOnUse">
<stop stop-color="white"/>
<stop offset="1" stop-color="white" stop-opacity="0.2"/>
</linearGradient>
<linearGradient id="paint3_linear_19_99" x1="26.5421" y1="24.0807" x2="33.3838" y2="25.165" gradientUnits="userSpaceOnUse">
<stop stop-color="white"/>
<stop offset="1" stop-color="white" stop-opacity="0"/>
</linearGradient>
<clipPath id="clip0_19_99">
<rect width="49" height="44" fill="white"/>
</clipPath>
</defs>
</svg>
