<svg preserveAspectRatio="none" width="100%" height="100%" overflow="visible" style="display: block;" viewBox="0 0 63 56" fill="none" xmlns="http://www.w3.org/2000/svg">
<g id="image" clip-path="url(#clip0_19_117)">
<path id="Vector" opacity="0.6" d="M40.7658 54.6898C41.2585 55.8036 42.5553 56.3045 43.6621 55.8086L61.6977 47.7286C62.8044 47.2328 63.3026 45.9279 62.8099 44.8141C62.3172 43.7004 61.0204 43.1996 59.9137 43.6953L46.4731 49.717C54.0303 22.3209 30.4816 -4.56033 1.80392 0.653194C0.611726 0.869934 -0.180059 2.01834 0.0353252 3.21805C0.250742 4.41769 1.39155 5.21447 2.58369 4.9978C27.739 0.424545 48.4502 23.6685 42.4689 47.6851L36.7445 34.7448C36.2518 33.6311 34.955 33.1302 33.8482 33.626C32.7415 34.1218 32.2437 35.4268 32.7364 36.5405L40.7658 54.6898Z" fill="var(--fill-0, #34C759)"/>
</g>
<defs>
<clipPath id="clip0_19_117">
<rect width="63" height="56" fill="white"/>
</clipPath>
</defs>
</svg>
