<svg preserveAspectRatio="none" width="100%" height="100%" overflow="visible" style="display: block;" viewBox="0 0 11 11" fill="none" xmlns="http://www.w3.org/2000/svg">
<g id="SVG" clip-path="url(#clip0_19_270)">
<path id="Vector" d="M9.82757 4.55247C9.93126 4.5491 10.0345 4.56704 10.131 4.60519C10.2276 4.64335 10.3152 4.7009 10.3886 4.77428C10.462 4.84767 10.5195 4.93533 10.5577 5.03184C10.5958 5.12834 10.6138 5.23164 10.6104 5.33533C10.61 5.43509 10.59 5.53378 10.5514 5.62575C10.5128 5.71772 10.4564 5.80115 10.3855 5.87126C10.2443 6.01123 10.0538 6.09009 9.85491 6.09084L6.00634 6.08947L6.03449 9.91124C6.03375 10.1101 5.95489 10.3006 5.81492 10.4418C5.74481 10.5127 5.66138 10.5691 5.56941 10.6077C5.47744 10.6463 5.37875 10.6664 5.27899 10.6667C5.07872 10.6661 4.88681 10.5862 4.74515 10.4445C4.60349 10.3029 4.52361 10.1109 4.52294 9.91071L4.49479 6.08894L0.699831 6.08759C0.509473 6.0728 0.331657 5.98672 0.201917 5.84656C0.0721762 5.70641 6.76722e-05 5.52249 4.76074e-08 5.33157C-6.7577e-05 5.14065 0.0719109 4.95678 0.201552 4.81672C0.331193 4.67665 0.508948 4.5907 0.699295 4.57604L4.49425 4.57739L4.49291 0.782421C4.49111 0.681411 4.50923 0.581051 4.54623 0.48707C4.58322 0.393089 4.63837 0.307327 4.70852 0.234684C4.77868 0.162039 4.86246 0.103935 4.9551 0.0636874C5.04773 0.0234398 5.1474 0.00183602 5.24841 0.000112024C5.34942 -0.00161197 5.44979 0.0165776 5.5438 0.0536397C5.6378 0.0907021 5.7236 0.145911 5.7963 0.216117C5.86899 0.286323 5.92716 0.370151 5.96747 0.462812C6.00778 0.555474 6.02946 0.655156 6.03125 0.756166L6.0058 4.57792L9.82757 4.55247Z" fill="var(--fill-0, #313131)"/>
</g>
<defs>
<clipPath id="clip0_19_270">
<rect width="11" height="11" fill="white"/>
</clipPath>
</defs>
</svg>
